<svg width="182" height="58" viewBox="0 0 182 58" fill="none" xmlns="http://www.w3.org/2000/svg">
<g filter="url(#filter0_b_1528_214)">
<rect x="1" y="1" width="180" height="56" rx="8" fill="#0E0F2C"/>
<path d="M14.7438 12.7975C14.3527 13.1973 14.1263 13.8196 14.1263 14.6256V43.3751C14.1263 44.1811 14.3527 44.8035 14.7438 45.2033L14.8404 45.291L31.341 29.1873V28.807L14.8404 12.7033L14.7438 12.7975Z" fill="url(#paint0_linear_1528_214)"/>
<path d="M36.835 34.5579L31.3409 29.1872V28.807L36.8417 23.4364L36.9649 23.5062L43.4792 27.1251C45.3383 28.1521 45.3383 29.8421 43.4792 30.8756L36.9649 34.488L36.835 34.5579Z" fill="url(#paint1_linear_1528_214)"/>
<path d="M36.9649 34.488L31.3409 28.9972L14.7438 45.2033C15.3613 45.837 16.3682 45.9134 17.5133 45.2797L36.9649 34.488Z" fill="url(#paint2_linear_1528_214)"/>
<path d="M36.9649 23.5062L17.5133 12.7146C16.3682 12.0873 15.3613 12.1637 14.7438 12.7974L31.3409 28.9971L36.9649 23.5062Z" fill="url(#paint3_linear_1528_214)"/>
<path d="M91.0415 16.3462C87.9018 16.3462 85.3564 18.7549 85.3564 22.0901C85.3564 25.3944 87.917 27.8341 91.0415 27.8341C94.1812 27.8341 96.7266 25.3944 96.7266 22.0901C96.7418 18.7549 94.1812 16.3462 91.0415 16.3462ZM91.0415 25.5643C89.3192 25.5643 87.8408 24.1283 87.8408 22.0901C87.8408 20.0211 89.3192 18.6159 91.0415 18.6159C92.7638 18.6159 94.2422 20.0365 94.2422 22.0901C94.2422 24.1283 92.7638 25.5643 91.0415 25.5643ZM78.635 16.3462C75.4952 16.3462 72.9499 18.7549 72.9499 22.0901C72.9499 25.3944 75.5105 27.8341 78.635 27.8341C81.7595 27.8341 84.32 25.3944 84.32 22.0901C84.3353 18.7549 81.7747 16.3462 78.635 16.3462ZM78.635 25.5643C76.9127 25.5643 75.4343 24.1283 75.4343 22.0901C75.4343 20.0211 76.9127 18.6159 78.635 18.6159C80.3573 18.6159 81.8357 20.0365 81.8357 22.0901C81.8357 24.1283 80.3573 25.5643 78.635 25.5643ZM63.8813 20.546H69.6273C69.4596 21.9203 69.0024 22.9085 68.3165 23.6188C67.4782 24.468 66.1675 25.3944 63.8813 25.3944C60.3453 25.3944 57.5713 22.507 57.5713 18.9093C57.5713 15.3116 60.3453 12.4242 63.8813 12.4242C65.7864 12.4242 67.1887 13.1808 68.2098 14.169L69.9016 12.4551C68.4689 11.0654 66.5485 10 63.866 10C59.0192 10 54.9345 13.9992 54.9345 18.9093C54.9345 23.8195 59.0192 27.8186 63.866 27.8186C66.4876 27.8186 68.4537 26.954 70.0083 25.3172C71.5934 23.7114 72.0964 21.4416 72.0964 19.6196C72.0964 19.0483 72.0507 18.5387 71.9745 18.091H63.8813V20.546ZM124.237 20.0056C123.765 18.724 122.332 16.3462 119.391 16.3462C116.464 16.3462 114.041 18.6777 114.041 22.0901C114.041 25.3018 116.449 27.8341 119.665 27.8341C122.256 27.8341 123.765 26.2282 124.39 25.2864L122.454 23.9893C121.814 24.9467 120.93 25.5797 119.665 25.5797C118.4 25.5797 117.501 24.993 116.921 23.8349L124.496 20.6541L124.237 20.0056ZM116.51 21.9203C116.449 19.6968 118.202 18.5696 119.467 18.5696C120.457 18.5696 121.296 19.0637 121.57 19.7894L116.51 21.9203ZM110.352 27.4789H112.837V10.6022H110.352V27.4789ZM106.283 17.6277H106.192C105.628 16.9483 104.561 16.3462 103.204 16.3462C100.369 16.3462 97.7782 18.863 97.7782 22.1056C97.7782 25.3172 100.369 27.8186 103.204 27.8186C104.561 27.8186 105.628 27.2165 106.192 26.5216H106.283V27.3554C106.283 29.548 105.125 30.7215 103.25 30.7215C101.726 30.7215 100.781 29.6098 100.4 28.6833L98.2355 29.5943C98.8604 31.123 100.506 32.9913 103.265 32.9913C106.191 32.9913 108.645 31.2465 108.645 27.0157V16.7167H106.283V17.6277ZM103.418 25.5643C101.695 25.5643 100.263 24.1129 100.263 22.1056C100.263 20.0828 101.695 18.6005 103.418 18.6005C105.109 18.6005 106.451 20.0828 106.451 22.1056C106.451 24.1129 105.125 25.5643 103.418 25.5643ZM135.912 10.6022H129.953V27.4789H132.437V21.0865H135.912C138.671 21.0865 141.369 19.0637 141.369 15.852C141.369 12.6404 138.656 10.6022 135.912 10.6022ZM135.973 18.7395H132.437V12.9492H135.973C137.833 12.9492 138.884 14.5087 138.884 15.8366C138.884 17.1491 137.833 18.7395 135.973 18.7395ZM151.337 16.3153C149.538 16.3153 147.679 17.1182 146.901 18.8939L149.111 19.8203C149.584 18.8939 150.468 18.5851 151.382 18.5851C152.663 18.5851 153.973 19.3725 154.004 20.7622V20.9321C153.547 20.6696 152.586 20.2836 151.413 20.2836C149.035 20.2836 146.612 21.6115 146.612 24.082C146.612 26.3363 148.563 27.7878 150.742 27.7878C152.419 27.7878 153.333 27.0312 153.912 26.1356H154.004V27.4326H156.397V20.9629C156.382 17.9829 154.187 16.3153 151.337 16.3153ZM151.032 25.5643C150.224 25.5643 149.081 25.1474 149.081 24.1283C149.081 22.8313 150.498 22.3217 151.718 22.3217C152.815 22.3217 153.318 22.5533 153.989 22.893C153.791 24.4526 152.465 25.5643 151.032 25.5643ZM165.13 16.6859L162.28 24.0048H162.189L159.232 16.6859H156.549L160.984 26.9076L158.454 32.5898H161.045L167.874 16.6859H165.13ZM142.74 27.4789H145.225V10.6022H142.74V27.4789Z" fill="white"/>
<path d="M62.8601 46.2089C61.9761 47.1353 60.8635 47.5985 59.5375 47.5985C58.2115 47.5985 57.1141 47.1353 56.2148 46.2089C55.3308 45.2824 54.8736 44.1552 54.8736 42.8119C54.8736 41.4686 55.3156 40.3414 56.2148 39.4149C57.0988 38.4885 58.2115 38.0253 59.5375 38.0253C60.8482 38.0253 61.9609 38.4885 62.8449 39.4304C63.7441 40.3568 64.1861 41.4994 64.1861 42.8273C64.1861 44.1398 63.7441 45.2824 62.8601 46.2089ZM57.0684 45.4368C57.739 46.1317 58.562 46.4714 59.5222 46.4714C60.4977 46.4714 61.3055 46.1317 61.9761 45.4368C62.6467 44.742 62.982 43.8773 62.982 42.7965C62.982 41.731 62.6467 40.8509 61.9761 40.1561C61.3055 39.4613 60.4824 39.1216 59.5222 39.1216C58.5468 39.1216 57.739 39.4613 57.0684 40.1561C56.3977 40.8509 56.0624 41.7156 56.0624 42.7965C56.0624 43.8773 56.413 44.7574 57.0684 45.4368Z" fill="white"/>
<path d="M65.8017 38.226H68.8957C69.6578 38.226 70.3284 38.4885 70.8923 38.998C71.4563 39.5076 71.7306 40.1715 71.7306 40.959C71.7306 41.6075 71.5172 42.1634 71.1057 42.6575C70.6942 43.1516 70.176 43.4604 69.5663 43.5839L69.5359 43.6303L72.0812 47.3669V47.4132H70.6942L68.2556 43.692H66.9601V47.4132H65.8017V38.226ZM66.9601 42.5803H68.8348C69.292 42.5803 69.7035 42.4259 70.0236 42.1171C70.3589 41.8082 70.5265 41.4222 70.5265 40.959C70.5265 40.5575 70.3741 40.187 70.0846 39.8627C69.795 39.523 69.3987 39.3686 68.911 39.3686H66.9601V42.5803Z" fill="white"/>
<path d="M80.2353 48L79.6104 47.0581C78.9398 47.4132 78.2082 47.5831 77.4309 47.5831C76.1049 47.5831 75.0075 47.1199 74.1083 46.1934C73.2243 45.267 72.767 44.1398 72.767 42.7965C72.767 41.4531 73.209 40.3259 74.1083 39.3995C74.9923 38.473 76.1049 38.0098 77.4309 38.0098C78.7417 38.0098 79.8543 38.473 80.7383 39.4149C81.6376 40.3414 82.0796 41.484 82.0796 42.8119C82.0796 44.2942 81.5461 45.4986 80.4945 46.4559L81.1346 47.4132L80.2353 48ZM77.4462 46.4714C77.9644 46.4714 78.4826 46.3478 78.9703 46.1162L77.9034 44.4949L78.8179 43.8619L79.8696 45.4677C80.5554 44.7883 80.906 43.8927 80.906 42.7965C80.906 41.731 80.5707 40.8509 79.9 40.1561C79.2294 39.4613 78.4064 39.1216 77.4462 39.1216C76.4707 39.1216 75.6629 39.4613 74.9923 40.1561C74.3217 40.8509 73.9864 41.7156 73.9864 42.7965C73.9864 43.8619 74.3217 44.742 74.9923 45.4368C75.6477 46.1317 76.4707 46.4714 77.4462 46.4714Z" fill="white"/>
<path d="M82.613 47.3978L86.0271 38.226H87.3379L90.7519 47.3978H89.4564L88.5877 44.9118H84.7773L83.8933 47.3978H82.613ZM85.1736 43.8001H88.1914L86.713 39.662H86.6672L85.1736 43.8001Z" fill="white"/>
<path d="M91.9408 47.3978V38.226H93.0991V46.2706H97.0162V47.3978H91.9408Z" fill="white"/>
<path d="M98.3117 47.3978V38.226H99.47V47.3978H98.3117Z" fill="white"/>
<path d="M111.617 46.2089C110.733 47.1353 109.621 47.5985 108.295 47.5985C106.969 47.5985 105.871 47.1353 104.972 46.2089C104.088 45.2824 103.631 44.1552 103.631 42.8119C103.631 41.4686 104.073 40.3414 104.972 39.4149C105.856 38.4885 106.969 38.0253 108.295 38.0253C109.606 38.0253 110.718 38.4885 111.602 39.4304C112.501 40.3568 112.943 41.4994 112.943 42.8273C112.943 44.1398 112.501 45.2824 111.617 46.2089ZM105.826 45.4368C106.496 46.1317 107.319 46.4714 108.28 46.4714C109.255 46.4714 110.063 46.1317 110.733 45.4368C111.404 44.742 111.739 43.8773 111.739 42.7965C111.739 41.731 111.404 40.8509 110.733 40.1561C110.063 39.4613 109.24 39.1216 108.28 39.1216C107.304 39.1216 106.496 39.4613 105.826 40.1561C105.155 40.8509 104.82 41.7156 104.82 42.7965C104.82 43.8773 105.155 44.7574 105.826 45.4368Z" fill="white"/>
<path d="M114.559 47.3978V38.226H115.717V46.2706H119.634V47.3978H114.559Z" fill="white"/>
<path d="M120.915 47.3978V38.226H122.073V47.3978H120.915Z" fill="white"/>
<path d="M124.176 47.3978V38.226H125.594L129.999 45.3596H130.044L129.999 43.5839V38.2106H131.157V47.3824H129.938L125.335 39.8936H125.289L125.335 41.6693V47.3824H124.176V47.3978Z" fill="white"/>
<path d="M141.933 43.1821C141.933 44.4637 141.552 45.4828 140.805 46.2394C139.951 47.1504 138.839 47.5982 137.482 47.5982C136.171 47.5982 135.059 47.1349 134.144 46.2239C133.23 45.3129 132.773 44.1703 132.773 42.8115C132.773 41.4527 133.23 40.3101 134.144 39.3991C135.059 38.4881 136.171 38.0249 137.482 38.0249C138.138 38.0249 138.747 38.1484 139.342 38.4109C139.936 38.6734 140.409 39.0131 140.759 39.43L139.967 40.2329C139.372 39.5072 138.534 39.1366 137.482 39.1366C136.522 39.1366 135.699 39.4763 135.013 40.1557C134.312 40.8351 133.961 41.7152 133.961 42.7961C133.961 43.8769 134.312 44.7571 135.013 45.4365C135.714 46.1159 136.537 46.4556 137.482 46.4556C138.488 46.4556 139.342 46.1159 140.012 45.4365C140.454 44.9887 140.698 44.3711 140.774 43.5836H137.482V42.4873H141.872C141.917 42.7189 141.933 42.9505 141.933 43.1821Z" fill="white"/>
<path d="M91.0415 16.3462C87.9018 16.3462 85.3564 18.7549 85.3564 22.0901C85.3564 25.3944 87.917 27.8341 91.0415 27.8341C94.1812 27.8341 96.7266 25.3944 96.7266 22.0901C96.7418 18.7549 94.1812 16.3462 91.0415 16.3462ZM91.0415 25.5643C89.3192 25.5643 87.8408 24.1283 87.8408 22.0901C87.8408 20.0211 89.3192 18.6159 91.0415 18.6159C92.7638 18.6159 94.2422 20.0365 94.2422 22.0901C94.2422 24.1283 92.7638 25.5643 91.0415 25.5643ZM78.635 16.3462C75.4952 16.3462 72.9499 18.7549 72.9499 22.0901C72.9499 25.3944 75.5105 27.8341 78.635 27.8341C81.7595 27.8341 84.32 25.3944 84.32 22.0901C84.3353 18.7549 81.7747 16.3462 78.635 16.3462ZM78.635 25.5643C76.9127 25.5643 75.4343 24.1283 75.4343 22.0901C75.4343 20.0211 76.9127 18.6159 78.635 18.6159C80.3573 18.6159 81.8357 20.0365 81.8357 22.0901C81.8357 24.1283 80.3573 25.5643 78.635 25.5643ZM63.8813 20.546H69.6273C69.4596 21.9203 69.0024 22.9085 68.3165 23.6188C67.4782 24.468 66.1675 25.3944 63.8813 25.3944C60.3453 25.3944 57.5713 22.507 57.5713 18.9093C57.5713 15.3116 60.3453 12.4242 63.8813 12.4242C65.7864 12.4242 67.1887 13.1808 68.2098 14.169L69.9016 12.4551C68.4689 11.0654 66.5485 10 63.866 10C59.0192 10 54.9345 13.9992 54.9345 18.9093C54.9345 23.8195 59.0192 27.8186 63.866 27.8186C66.4876 27.8186 68.4537 26.954 70.0083 25.3172C71.5934 23.7114 72.0964 21.4416 72.0964 19.6196C72.0964 19.0483 72.0507 18.5387 71.9745 18.091H63.8813V20.546ZM124.237 20.0056C123.765 18.724 122.332 16.3462 119.391 16.3462C116.464 16.3462 114.041 18.6777 114.041 22.0901C114.041 25.3018 116.449 27.8341 119.665 27.8341C122.256 27.8341 123.765 26.2282 124.39 25.2864L122.454 23.9893C121.814 24.9467 120.93 25.5797 119.665 25.5797C118.4 25.5797 117.501 24.993 116.921 23.8349L124.496 20.6541L124.237 20.0056ZM116.51 21.9203C116.449 19.6968 118.202 18.5696 119.467 18.5696C120.457 18.5696 121.296 19.0637 121.57 19.7894L116.51 21.9203ZM110.352 27.4789H112.837V10.6022H110.352V27.4789ZM106.283 17.6277H106.192C105.628 16.9483 104.561 16.3462 103.204 16.3462C100.369 16.3462 97.7782 18.863 97.7782 22.1056C97.7782 25.3172 100.369 27.8186 103.204 27.8186C104.561 27.8186 105.628 27.2165 106.192 26.5216H106.283V27.3554C106.283 29.548 105.125 30.7215 103.25 30.7215C101.726 30.7215 100.781 29.6098 100.4 28.6833L98.2355 29.5943C98.8604 31.123 100.506 32.9913 103.265 32.9913C106.191 32.9913 108.645 31.2465 108.645 27.0157V16.7167H106.283V17.6277ZM103.418 25.5643C101.695 25.5643 100.263 24.1129 100.263 22.1056C100.263 20.0828 101.695 18.6005 103.418 18.6005C105.109 18.6005 106.451 20.0828 106.451 22.1056C106.451 24.1129 105.125 25.5643 103.418 25.5643ZM135.912 10.6022H129.953V27.4789H132.437V21.0865H135.912C138.671 21.0865 141.369 19.0637 141.369 15.852C141.369 12.6404 138.656 10.6022 135.912 10.6022ZM135.973 18.7395H132.437V12.9492H135.973C137.833 12.9492 138.884 14.5087 138.884 15.8366C138.884 17.1491 137.833 18.7395 135.973 18.7395ZM151.337 16.3153C149.538 16.3153 147.679 17.1182 146.901 18.8939L149.111 19.8203C149.584 18.8939 150.468 18.5851 151.382 18.5851C152.663 18.5851 153.973 19.3725 154.004 20.7622V20.9321C153.547 20.6696 152.586 20.2836 151.413 20.2836C149.035 20.2836 146.612 21.6115 146.612 24.082C146.612 26.3363 148.563 27.7878 150.742 27.7878C152.419 27.7878 153.333 27.0312 153.912 26.1356H154.004V27.4326H156.397V20.9629C156.382 17.9829 154.187 16.3153 151.337 16.3153ZM151.032 25.5643C150.224 25.5643 149.081 25.1474 149.081 24.1283C149.081 22.8313 150.498 22.3217 151.718 22.3217C152.815 22.3217 153.318 22.5533 153.989 22.893C153.791 24.4526 152.465 25.5643 151.032 25.5643ZM165.13 16.6859L162.28 24.0048H162.189L159.232 16.6859H156.549L160.984 26.9076L158.454 32.5898H161.045L167.874 16.6859H165.13ZM142.74 27.4789H145.225V10.6022H142.74V27.4789Z" stroke="white" stroke-width="0.2" stroke-miterlimit="10"/>
<path d="M62.8601 46.2089C61.9761 47.1353 60.8635 47.5985 59.5375 47.5985C58.2115 47.5985 57.1141 47.1353 56.2148 46.2089C55.3308 45.2824 54.8736 44.1552 54.8736 42.8119C54.8736 41.4686 55.3156 40.3414 56.2148 39.4149C57.0988 38.4885 58.2115 38.0253 59.5375 38.0253C60.8482 38.0253 61.9609 38.4885 62.8449 39.4304C63.7441 40.3568 64.1861 41.4994 64.1861 42.8273C64.1861 44.1398 63.7441 45.2824 62.8601 46.2089ZM57.0684 45.4368C57.739 46.1317 58.562 46.4714 59.5222 46.4714C60.4977 46.4714 61.3055 46.1317 61.9761 45.4368C62.6467 44.742 62.982 43.8773 62.982 42.7965C62.982 41.731 62.6467 40.8509 61.9761 40.1561C61.3055 39.4613 60.4824 39.1216 59.5222 39.1216C58.5468 39.1216 57.739 39.4613 57.0684 40.1561C56.3977 40.8509 56.0624 41.7156 56.0624 42.7965C56.0624 43.8773 56.413 44.7574 57.0684 45.4368Z" stroke="white" stroke-width="0.2" stroke-miterlimit="10"/>
<path d="M65.8017 38.226H68.8957C69.6578 38.226 70.3284 38.4885 70.8923 38.998C71.4563 39.5076 71.7306 40.1715 71.7306 40.959C71.7306 41.6075 71.5172 42.1634 71.1057 42.6575C70.6942 43.1516 70.176 43.4604 69.5663 43.5839L69.5359 43.6303L72.0812 47.3669V47.4132H70.6942L68.2556 43.692H66.9601V47.4132H65.8017V38.226ZM66.9601 42.5803H68.8348C69.292 42.5803 69.7035 42.4259 70.0236 42.1171C70.3589 41.8082 70.5265 41.4222 70.5265 40.959C70.5265 40.5575 70.3741 40.187 70.0846 39.8627C69.795 39.523 69.3987 39.3686 68.911 39.3686H66.9601V42.5803Z" stroke="white" stroke-width="0.2" stroke-miterlimit="10"/>
<path d="M80.2353 48L79.6104 47.0581C78.9398 47.4132 78.2082 47.5831 77.4309 47.5831C76.1049 47.5831 75.0075 47.1199 74.1083 46.1934C73.2243 45.267 72.767 44.1398 72.767 42.7965C72.767 41.4531 73.209 40.3259 74.1083 39.3995C74.9923 38.473 76.1049 38.0098 77.4309 38.0098C78.7417 38.0098 79.8543 38.473 80.7383 39.4149C81.6376 40.3414 82.0796 41.484 82.0796 42.8119C82.0796 44.2942 81.5461 45.4986 80.4945 46.4559L81.1346 47.4132L80.2353 48ZM77.4462 46.4714C77.9644 46.4714 78.4826 46.3478 78.9703 46.1162L77.9034 44.4949L78.8179 43.8619L79.8696 45.4677C80.5554 44.7883 80.906 43.8927 80.906 42.7965C80.906 41.731 80.5707 40.8509 79.9 40.1561C79.2294 39.4613 78.4064 39.1216 77.4462 39.1216C76.4707 39.1216 75.6629 39.4613 74.9923 40.1561C74.3217 40.8509 73.9864 41.7156 73.9864 42.7965C73.9864 43.8619 74.3217 44.742 74.9923 45.4368C75.6477 46.1317 76.4707 46.4714 77.4462 46.4714Z" stroke="white" stroke-width="0.2" stroke-miterlimit="10"/>
<path d="M82.613 47.3978L86.0271 38.226H87.3379L90.7519 47.3978H89.4564L88.5877 44.9118H84.7773L83.8933 47.3978H82.613ZM85.1736 43.8001H88.1914L86.713 39.662H86.6672L85.1736 43.8001Z" stroke="white" stroke-width="0.2" stroke-miterlimit="10"/>
<path d="M91.9408 47.3978V38.226H93.0991V46.2706H97.0162V47.3978H91.9408Z" stroke="white" stroke-width="0.2" stroke-miterlimit="10"/>
<path d="M98.3117 47.3978V38.226H99.47V47.3978H98.3117Z" stroke="white" stroke-width="0.2" stroke-miterlimit="10"/>
<path d="M111.617 46.2089C110.733 47.1353 109.621 47.5985 108.295 47.5985C106.969 47.5985 105.871 47.1353 104.972 46.2089C104.088 45.2824 103.631 44.1552 103.631 42.8119C103.631 41.4686 104.073 40.3414 104.972 39.4149C105.856 38.4885 106.969 38.0253 108.295 38.0253C109.606 38.0253 110.718 38.4885 111.602 39.4304C112.501 40.3568 112.943 41.4994 112.943 42.8273C112.943 44.1398 112.501 45.2824 111.617 46.2089ZM105.826 45.4368C106.496 46.1317 107.319 46.4714 108.28 46.4714C109.255 46.4714 110.063 46.1317 110.733 45.4368C111.404 44.742 111.739 43.8773 111.739 42.7965C111.739 41.731 111.404 40.8509 110.733 40.1561C110.063 39.4613 109.24 39.1216 108.28 39.1216C107.304 39.1216 106.496 39.4613 105.826 40.1561C105.155 40.8509 104.82 41.7156 104.82 42.7965C104.82 43.8773 105.155 44.7574 105.826 45.4368Z" stroke="white" stroke-width="0.2" stroke-miterlimit="10"/>
<path d="M114.559 47.3978V38.226H115.717V46.2706H119.634V47.3978H114.559Z" stroke="white" stroke-width="0.2" stroke-miterlimit="10"/>
<path d="M120.915 47.3978V38.226H122.073V47.3978H120.915Z" stroke="white" stroke-width="0.2" stroke-miterlimit="10"/>
<path d="M124.176 47.3978V38.226H125.594L129.999 45.3596H130.044L129.999 43.5839V38.2106H131.157V47.3824H129.938L125.335 39.8936H125.289L125.335 41.6693V47.3824H124.176V47.3978Z" stroke="white" stroke-width="0.2" stroke-miterlimit="10"/>
<path d="M141.933 43.1821C141.933 44.4637 141.552 45.4828 140.805 46.2394C139.951 47.1504 138.839 47.5982 137.482 47.5982C136.171 47.5982 135.059 47.1349 134.144 46.2239C133.23 45.3129 132.773 44.1703 132.773 42.8115C132.773 41.4527 133.23 40.3101 134.144 39.3991C135.059 38.4881 136.171 38.0249 137.482 38.0249C138.138 38.0249 138.747 38.1484 139.342 38.4109C139.936 38.6734 140.409 39.0131 140.759 39.43L139.967 40.2329C139.372 39.5072 138.534 39.1366 137.482 39.1366C136.522 39.1366 135.699 39.4763 135.013 40.1557C134.312 40.8351 133.961 41.7152 133.961 42.7961C133.961 43.8769 134.312 44.7571 135.013 45.4365C135.714 46.1159 136.537 46.4556 137.482 46.4556C138.488 46.4556 139.342 46.1159 140.012 45.4365C140.454 44.9887 140.698 44.3711 140.774 43.5836H137.482V42.4873H141.872C141.917 42.7189 141.933 42.9505 141.933 43.1821Z" stroke="white" stroke-width="0.2" stroke-miterlimit="10"/>
<rect x="0.5" y="0.5" width="181" height="57" rx="8.5" stroke="#9F9FAB"/>
</g>
<defs>
<filter id="filter0_b_1528_214" x="-4" y="-4" width="190" height="66" filterUnits="userSpaceOnUse" color-interpolation-filters="sRGB">
<feFlood flood-opacity="0" result="BackgroundImageFix"/>
<feGaussianBlur in="BackgroundImageFix" stdDeviation="2"/>
<feComposite in2="SourceAlpha" operator="in" result="effect1_backgroundBlur_1528_214"/>
<feBlend mode="normal" in="SourceGraphic" in2="effect1_backgroundBlur_1528_214" result="shape"/>
</filter>
<linearGradient id="paint0_linear_1528_214" x1="29.8759" y1="43.6745" x2="8.06505" y2="21.3352" gradientUnits="userSpaceOnUse">
<stop stop-color="#00A0FF"/>
<stop offset="0.0066" stop-color="#00A1FF"/>
<stop offset="0.2601" stop-color="#00BEFF"/>
<stop offset="0.5122" stop-color="#00D2FF"/>
<stop offset="0.7604" stop-color="#00DFFF"/>
<stop offset="1" stop-color="#00E3FF"/>
</linearGradient>
<linearGradient id="paint1_linear_1528_214" x1="45.9001" y1="28.9953" x2="13.6819" y2="28.9953" gradientUnits="userSpaceOnUse">
<stop stop-color="#FFE000"/>
<stop offset="0.4087" stop-color="#FFBD00"/>
<stop offset="0.7754" stop-color="#FFA500"/>
<stop offset="1" stop-color="#FF9C00"/>
</linearGradient>
<linearGradient id="paint2_linear_1528_214" x1="33.9067" y1="26.0122" x2="4.32942" y2="-4.28177" gradientUnits="userSpaceOnUse">
<stop stop-color="#FF3A44"/>
<stop offset="1" stop-color="#C31162"/>
</linearGradient>
<linearGradient id="paint3_linear_1528_214" x1="10.5659" y1="54.768" x2="23.7735" y2="41.2405" gradientUnits="userSpaceOnUse">
<stop stop-color="#32A071"/>
<stop offset="0.0685" stop-color="#2DA771"/>
<stop offset="0.4762" stop-color="#15CF74"/>
<stop offset="0.8009" stop-color="#06E775"/>
<stop offset="1" stop-color="#00F076"/>
</linearGradient>
</defs>
</svg>
