<svg width="64" height="65" viewBox="0 0 64 65" fill="none" xmlns="http://www.w3.org/2000/svg">
<rect y="0.5" width="64" height="64" rx="32" fill="#00AEDA"/>
<path d="M10.584 29.916C10.2101 30.2908 10.0001 30.7986 10 31.328V46.5C10 47.0304 10.2107 47.5391 10.5858 47.9142C10.9609 48.2893 11.4696 48.5 12 48.5H18C18.5304 48.5 19.0391 48.2893 19.4142 47.9142C19.7893 47.5391 20 47.0304 20 46.5V44.5H44V46.5C44 47.0304 44.2107 47.5391 44.5858 47.9142C44.9608 48.2893 45.4696 48.5 46 48.5H52C52.5304 48.5 53.0391 48.2893 53.4142 47.9142C53.7893 47.5391 54 47.0304 54 46.5V31.328C53.9999 30.7986 53.7899 30.2908 53.416 29.916L50 26.5L44.584 17.472C44.406 17.1749 44.1539 16.9292 43.8524 16.7588C43.5509 16.5884 43.2103 16.4992 42.864 16.5H21.136C20.7904 16.4999 20.4506 16.5894 20.1499 16.7598C19.8491 16.9301 19.5977 17.1755 19.42 17.472L14 26.5L10.584 29.916ZM46.536 28.5H17.464L22.264 20.5H41.736L46.536 28.5ZM24 35.812V37.3C24 37.6183 23.8736 37.9235 23.6485 38.1485C23.4235 38.3736 23.1183 38.5 22.8 38.5H15.2C14.8817 38.5 14.5765 38.3736 14.3515 38.1485C14.1264 37.9235 14 37.6183 14 37.3V33.964C14.0001 33.7865 14.0396 33.6111 14.1156 33.4507C14.1916 33.2902 14.3023 33.1487 14.4397 33.0362C14.5771 32.9237 14.7377 32.8431 14.91 32.8001C15.0823 32.7572 15.2619 32.7531 15.436 32.788L22.716 34.244C23.0781 34.317 23.4039 34.513 23.6379 34.7988C23.872 35.0846 23.9999 35.4426 24 35.812ZM50 34.452V37.3C50 37.6183 49.8736 37.9235 49.6485 38.1485C49.4235 38.3736 49.1183 38.5 48.8 38.5H41.2C40.8817 38.5 40.5765 38.3736 40.3515 38.1485C40.1264 37.9235 40 37.6183 40 37.3V35.484C40.0001 35.2068 40.0962 34.9382 40.2719 34.7238C40.4477 34.5094 40.6922 34.3625 40.964 34.308L48.084 32.884C48.3162 32.8372 48.5559 32.8426 48.7858 32.8997C49.0157 32.9568 49.23 33.0643 49.4133 33.2143C49.5966 33.3643 49.7443 33.5531 49.8458 33.7672C49.9473 33.9812 49.9999 34.2151 50 34.452Z" fill="white"/>
</svg>
