<svg width="20" height="20" viewBox="0 0 20 20" fill="none" xmlns="http://www.w3.org/2000/svg">
<path d="M10.0018 4.86417C7.16595 4.86417 4.87012 7.16246 4.87012 9.99575C4.87012 12.8315 7.16845 15.1273 10.0018 15.1273C12.8376 15.1273 15.1335 12.829 15.1335 9.99575C15.1335 7.15996 12.8351 4.86417 10.0018 4.86417ZM10.0018 13.3265C8.16095 13.3265 6.67095 11.8357 6.67095 9.99575C6.67095 8.15578 8.16178 6.66497 10.0018 6.66497C11.8418 6.66497 13.3326 8.15578 13.3326 9.99575C13.3335 11.8357 11.8426 13.3265 10.0018 13.3265Z" fill="#0E0F2C"/>
<path d="M14.1235 0.0628211C12.2835 -0.0230107 7.72602 -0.0188441 5.88436 0.0628211C4.26602 0.138653 2.83852 0.529479 1.68769 1.68029C-0.235644 3.60359 0.0101894 6.19521 0.0101894 9.99598C0.0101894 13.8859 -0.206477 16.4175 1.68769 18.3117C3.61852 20.2416 6.24769 19.9891 10.0035 19.9891C13.8569 19.9891 15.1869 19.9916 16.5494 19.4641C18.4019 18.745 19.8002 17.0892 19.9369 14.1151C20.0235 12.2743 20.0185 7.71769 19.9369 5.87605C19.7719 2.36528 17.8877 0.236151 14.1235 0.0628211ZM17.036 17.0392C15.7752 18.3 14.026 18.1875 9.97936 18.1875C5.81269 18.1875 4.14186 18.2492 2.92269 17.0267C1.51852 15.6292 1.77269 13.3851 1.77269 9.98265C1.77269 5.37856 1.30019 2.06279 5.92102 1.82612C6.98269 1.78862 7.29519 1.77612 9.96769 1.77612L10.0052 1.80112C14.446 1.80112 17.9302 1.33613 18.1394 5.95605C18.1869 7.0102 18.1977 7.32686 18.1977 9.99515C18.1969 14.1134 18.2752 15.7942 17.036 17.0392Z" fill="#0E0F2C"/>
<path d="M15.3378 5.86112C16.0001 5.86112 16.537 5.32424 16.537 4.66197C16.537 3.9997 16.0001 3.46283 15.3378 3.46283C14.6756 3.46283 14.1387 3.9997 14.1387 4.66197C14.1387 5.32424 14.6756 5.86112 15.3378 5.86112Z" fill="#0E0F2C"/>
</svg>
