<svg width="182" height="58" viewBox="0 0 182 58" fill="none" xmlns="http://www.w3.org/2000/svg">
<g filter="url(#filter0_b_1528_215)">
<rect x="1" y="1" width="180" height="56" rx="8" fill="#0E0F2C"/>
<path d="M42.1134 30.0546C42.0747 25.8647 45.6321 23.8263 45.7947 23.7314C43.7801 20.8675 40.6574 20.4762 39.5601 20.445C36.9374 20.1759 34.3934 21.9751 33.0574 21.9751C31.6947 21.9751 29.6374 20.471 27.4201 20.5152C24.5667 20.5581 21.8974 22.1688 20.4334 24.67C17.4121 29.7699 19.6654 37.2644 22.5601 41.3867C24.0081 43.4056 25.7001 45.6598 27.9147 45.5805C30.0814 45.4934 30.8907 44.2337 33.5054 44.2337C36.0961 44.2337 36.8561 45.5805 39.1147 45.5298C41.4401 45.4934 42.9041 43.5018 44.3014 41.4647C45.9747 39.1507 46.6467 36.8718 46.6734 36.7548C46.6187 36.7366 42.1574 35.0765 42.1134 30.0546Z" fill="white"/>
<path d="M37.8467 17.7332C39.0121 16.3123 39.8094 14.3792 39.5881 12.4175C37.9014 12.4903 35.7921 13.555 34.5774 14.9447C33.5027 16.1693 32.5427 18.1765 32.7907 20.0641C34.6854 20.2019 36.6307 19.132 37.8467 17.7332Z" fill="white"/>
<path d="M71.6534 28.2355H68.6254L66.9667 23.1538H61.2014L59.6214 28.2355H56.6734L62.3854 10.9351H65.9134L71.6534 28.2355ZM66.4667 21.0218L64.9667 16.5043C64.8081 16.0428 64.5107 14.956 64.0721 13.2452H64.0187C63.8441 13.981 63.5627 15.0678 63.1761 16.5043L61.7027 21.0218H66.4667Z" fill="white"/>
<path d="M86.3427 21.8447C86.3427 23.9663 85.7547 25.6434 84.5787 26.8745C83.5254 27.9704 82.2174 28.5177 80.6561 28.5177C78.9707 28.5177 77.7601 27.9274 77.0227 26.747H76.9694V33.3186H74.1267V19.8674C74.1267 18.5336 74.0907 17.1648 74.0214 15.7607H76.5214L76.6801 17.7381H76.7334C77.6814 16.2483 79.1201 15.5046 81.0507 15.5046C82.5601 15.5046 83.8201 16.0857 84.8281 17.2492C85.8387 18.414 86.3427 19.9454 86.3427 21.8447ZM83.4467 21.9461C83.4467 20.7319 83.1667 19.7309 82.6041 18.9431C81.9894 18.1215 81.1641 17.7108 80.1294 17.7108C79.4281 17.7108 78.7907 17.9395 78.2214 18.3906C77.6507 18.8456 77.2774 19.4398 77.1027 20.1756C77.0147 20.5188 76.9707 20.7996 76.9707 21.0205V23.1005C76.9707 24.0079 77.2561 24.7737 77.8267 25.399C78.3974 26.0243 79.1387 26.3362 80.0507 26.3362C81.1214 26.3362 81.9547 25.9332 82.5507 25.1298C83.1481 24.3251 83.4467 23.2643 83.4467 21.9461Z" fill="white"/>
<path d="M101.059 21.8447C101.059 23.9663 100.471 25.6434 99.2934 26.8745C98.2414 27.9704 96.9334 28.5177 95.3721 28.5177C93.6867 28.5177 92.4761 27.9274 91.7401 26.747H91.6867V33.3186H88.8441V19.8674C88.8441 18.5336 88.8081 17.1648 88.7387 15.7607H91.2387L91.3974 17.7381H91.4507C92.3974 16.2483 93.8361 15.5046 95.7681 15.5046C97.2761 15.5046 98.5361 16.0857 99.5467 17.2492C100.553 18.414 101.059 19.9454 101.059 21.8447ZM98.1627 21.9461C98.1627 20.7319 97.8814 19.7309 97.3187 18.9431C96.7041 18.1215 95.8814 17.7108 94.8454 17.7108C94.1427 17.7108 93.5067 17.9395 92.9361 18.3906C92.3654 18.8456 91.9934 19.4398 91.8187 20.1756C91.7321 20.5188 91.6867 20.7996 91.6867 21.0205V23.1005C91.6867 24.0079 91.9721 24.7737 92.5401 25.399C93.1107 26.023 93.8521 26.3362 94.7667 26.3362C95.8374 26.3362 96.6707 25.9332 97.2667 25.1298C97.8641 24.3251 98.1627 23.2643 98.1627 21.9461Z" fill="white"/>
<path d="M117.512 23.3839C117.512 24.8555 116.988 26.0528 115.936 26.9771C114.78 27.9872 113.171 28.4916 111.103 28.4916C109.193 28.4916 107.663 28.1328 106.504 27.4139L107.163 25.1038C108.411 25.8396 109.78 26.2088 111.272 26.2088C112.343 26.2088 113.176 25.9722 113.775 25.5016C114.371 25.031 114.668 24.3992 114.668 23.6114C114.668 22.9094 114.423 22.3179 113.931 21.8382C113.441 21.3585 112.624 20.9126 111.483 20.5005C108.376 19.3708 106.824 17.7159 106.824 15.5397C106.824 14.1175 107.368 12.9514 108.457 12.044C109.543 11.1353 110.991 10.6816 112.801 10.6816C114.416 10.6816 115.757 10.9559 116.828 11.5032L116.117 13.7626C115.117 13.2322 113.987 12.967 112.721 12.967C111.721 12.967 110.94 13.2075 110.38 13.6859C109.907 14.1136 109.669 14.6349 109.669 15.2524C109.669 15.9362 109.94 16.5017 110.484 16.9463C110.957 17.3571 111.817 17.8017 113.065 18.2814C114.592 18.8807 115.713 19.5814 116.435 20.3848C117.153 21.1856 117.512 22.1879 117.512 23.3839Z" fill="white"/>
<path d="M126.911 17.8407H123.777V23.8974C123.777 25.4379 124.329 26.2075 125.436 26.2075C125.944 26.2075 126.365 26.1646 126.699 26.0788L126.777 28.1835C126.217 28.3876 125.48 28.4903 124.567 28.4903C123.444 28.4903 122.567 28.1562 121.933 27.4893C121.303 26.8211 120.985 25.7005 120.985 24.1262V17.8381H119.119V15.7581H120.985V13.474L123.777 12.6524V15.7581H126.911V17.8407Z" fill="white"/>
<path d="M141.048 21.8954C141.048 23.8129 140.485 25.3872 139.363 26.6183C138.185 27.8858 136.623 28.5176 134.675 28.5176C132.797 28.5176 131.303 27.9105 130.188 26.6963C129.073 25.4821 128.516 23.9494 128.516 22.1021C128.516 20.169 129.089 18.5856 130.24 17.3545C131.388 16.1221 132.937 15.5059 134.885 15.5059C136.763 15.5059 138.273 16.113 139.413 17.3285C140.504 18.5076 141.048 20.0299 141.048 21.8954ZM138.099 21.9851C138.099 20.8346 137.847 19.8479 137.336 19.025C136.74 18.0292 135.888 17.5326 134.784 17.5326C133.641 17.5326 132.773 18.0305 132.177 19.025C131.667 19.8492 131.415 20.8515 131.415 22.0371C131.415 23.1876 131.667 24.1743 132.177 24.9959C132.792 25.9917 133.651 26.4883 134.759 26.4883C135.844 26.4883 136.696 25.9813 137.311 24.9699C137.835 24.1314 138.099 23.1343 138.099 21.9851Z" fill="white"/>
<path d="M150.288 18.1982C150.007 18.1475 149.707 18.1215 149.392 18.1215C148.392 18.1215 147.619 18.4894 147.075 19.2265C146.601 19.8765 146.364 20.6981 146.364 21.6901V28.2355H143.523L143.549 19.6893C143.549 18.2515 143.513 16.9424 143.443 15.762H145.919L146.023 18.1488H146.101C146.401 17.3285 146.875 16.6681 147.523 16.1728C148.156 15.7269 148.84 15.5046 149.577 15.5046C149.84 15.5046 150.077 15.5228 150.288 15.5553V18.1982Z" fill="white"/>
<path d="M163.001 21.4079C163.001 21.9045 162.968 22.3231 162.897 22.665H154.369C154.403 23.8974 154.815 24.8399 155.607 25.4899C156.325 26.071 157.255 26.3622 158.396 26.3622C159.659 26.3622 160.811 26.1659 161.847 25.772L162.292 27.696C161.081 28.2108 159.652 28.4669 158.003 28.4669C156.019 28.4669 154.461 27.8975 153.328 26.76C152.197 25.6225 151.631 24.095 151.631 22.1788C151.631 20.2977 152.157 18.7312 153.212 17.4819C154.316 16.1481 155.808 15.4812 157.685 15.4812C159.529 15.4812 160.925 16.1481 161.873 17.4819C162.624 18.5414 163.001 19.8518 163.001 21.4079ZM160.291 20.689C160.309 19.8674 160.124 19.1576 159.739 18.5583C159.247 17.7874 158.491 17.4026 157.473 17.4026C156.544 17.4026 155.788 17.7783 155.211 18.5323C154.737 19.1316 154.456 19.8505 154.369 20.6877H160.291V20.689Z" fill="white"/>
<path d="M61.3785 47.3184H60.066V43.9082L57.0894 38.8633H58.5484L60.6754 42.5254H60.775L62.9019 38.8633H64.3609L61.3785 43.9082V47.3184ZM70.8761 40.9375V47.3184H69.6632V46.3047H69.5636C69.2393 47.0625 68.5968 47.4414 67.6358 47.4414C66.9327 47.4414 66.3897 47.2363 66.0069 46.8262C65.628 46.416 65.4386 45.834 65.4386 45.0801V40.9375H66.6983V44.752C66.6983 45.2715 66.8057 45.6562 67.0206 45.9062C67.2393 46.1523 67.5792 46.2754 68.0401 46.2754C68.544 46.2754 68.9327 46.1348 69.2061 45.8535C69.4796 45.5684 69.6163 45.1738 69.6163 44.6699V40.9375H70.8761ZM74.6022 43.5977L77.1334 40.9375H78.6217L75.9967 43.6738L78.7975 47.3184H77.2506L75.0592 44.5059L74.5025 45.0332V47.3184H73.2428V38.4473H74.5025V43.5977H74.6022ZM80.4962 47.3184V38.4473H81.756V47.3184H80.4962ZM86.2145 46.3633C86.6872 46.3633 87.0797 46.2305 87.3922 45.9648C87.7086 45.6992 87.8668 45.3672 87.8668 44.9688V44.4355L86.3082 44.5352C85.8707 44.5625 85.5485 44.6523 85.3414 44.8047C85.1344 44.957 85.0309 45.1738 85.0309 45.4551C85.0309 45.7363 85.1403 45.959 85.359 46.123C85.5778 46.2832 85.8629 46.3633 86.2145 46.3633ZM85.8922 47.4238C85.2672 47.4238 84.7555 47.25 84.3571 46.9023C83.9625 46.5508 83.7653 46.0879 83.7653 45.5137C83.7653 44.9434 83.9704 44.4961 84.3805 44.1719C84.7907 43.8438 85.3766 43.6562 86.1383 43.6094L87.8668 43.5098V42.959C87.8668 42.6191 87.7555 42.3594 87.5329 42.1797C87.3102 41.9961 86.986 41.9043 86.5602 41.9043C86.2086 41.9043 85.9157 41.9668 85.6813 42.0918C85.4508 42.2129 85.3004 42.3867 85.2301 42.6133H84.0114C84.0739 42.0664 84.3414 41.6309 84.8141 41.3066C85.2907 40.9785 85.8922 40.8145 86.6188 40.8145C87.4157 40.8145 88.0309 41.0039 88.4645 41.3828C88.902 41.7578 89.1207 42.2832 89.1207 42.959V47.3184H87.9079V46.4219H87.8082C87.6168 46.7422 87.3532 46.9902 87.0172 47.166C86.6852 47.3379 86.3102 47.4238 85.8922 47.4238ZM94.7746 47.4238C94.3293 47.4238 93.9289 47.3262 93.5734 47.1309C93.2218 46.9355 92.9504 46.6621 92.7589 46.3105H92.6652V47.3184H91.4523V38.4473H92.7121V41.9512H92.8117C92.9797 41.6035 93.2394 41.3301 93.591 41.1309C93.9425 40.9316 94.3371 40.832 94.7746 40.832C95.5832 40.832 96.2238 41.1289 96.6964 41.7227C97.173 42.3125 97.4113 43.1133 97.4113 44.125C97.4113 45.1367 97.173 45.9395 96.6964 46.5332C96.2199 47.127 95.5793 47.4238 94.7746 47.4238ZM94.4113 41.9629C93.8839 41.9629 93.466 42.1582 93.1574 42.5488C92.8488 42.9355 92.6925 43.4629 92.6886 44.1309C92.6925 44.7988 92.8468 45.3262 93.1515 45.7129C93.4601 46.0996 93.88 46.293 94.4113 46.293C94.9425 46.293 95.3586 46.1016 95.6593 45.7188C95.964 45.332 96.1164 44.8008 96.1164 44.125C96.1164 43.4531 95.964 42.9258 95.6593 42.543C95.3586 42.1562 94.9425 41.9629 94.4113 41.9629ZM105.865 47.4414C104.928 47.4414 104.192 47.1465 103.656 46.5566C103.121 45.9668 102.854 45.1562 102.854 44.125C102.854 43.0977 103.121 42.2891 103.656 41.6992C104.196 41.1094 104.932 40.8145 105.865 40.8145C106.795 40.8145 107.528 41.1094 108.063 41.6992C108.602 42.2891 108.871 43.0977 108.871 44.125C108.871 45.1562 108.604 45.9668 108.069 46.5566C107.533 47.1465 106.799 47.4414 105.865 47.4414ZM105.865 46.3223C106.408 46.3223 106.828 46.1309 107.125 45.748C107.426 45.3613 107.576 44.8203 107.576 44.125C107.576 43.4336 107.426 42.8965 107.125 42.5137C106.828 42.127 106.408 41.9336 105.865 41.9336C105.319 41.9336 104.897 42.125 104.6 42.5078C104.303 42.8906 104.154 43.4297 104.154 44.125C104.154 44.8242 104.303 45.3652 104.6 45.748C104.897 46.1309 105.319 46.3223 105.865 46.3223ZM110.927 47.3184V38.4473H112.187V47.3184H110.927ZM114.583 47.3184V40.9375H115.837V47.3184H114.583ZM115.79 39.6016C115.638 39.7461 115.445 39.8184 115.21 39.8184C114.976 39.8184 114.781 39.7461 114.624 39.6016C114.472 39.4531 114.396 39.2695 114.396 39.0508C114.396 38.832 114.472 38.6484 114.624 38.5C114.781 38.3516 114.976 38.2773 115.21 38.2773C115.445 38.2773 115.638 38.3516 115.79 38.5C115.947 38.6484 116.025 38.832 116.025 39.0508C116.025 39.2695 115.947 39.4531 115.79 39.6016ZM118.169 47.3184V40.9375H119.382V41.9512H119.475C119.807 41.1934 120.442 40.8145 121.38 40.8145C122.091 40.8145 122.636 41.0195 123.014 41.4297C123.397 41.8398 123.589 42.4258 123.589 43.1875V47.3184H122.329V43.5039C122.329 42.4805 121.87 41.9688 120.952 41.9688C120.487 41.9688 120.116 42.1152 119.839 42.4082C119.565 42.6973 119.428 43.0898 119.428 43.5859V47.3184H118.169ZM127.268 45.5781C127.565 45.9492 127.981 46.1348 128.516 46.1348C129.051 46.1348 129.473 45.9473 129.782 45.5723C130.09 45.1973 130.244 44.6895 130.244 44.0488C130.244 43.4121 130.09 42.9062 129.782 42.5312C129.473 42.1523 129.051 41.9629 128.516 41.9629C127.981 41.9629 127.565 42.1504 127.268 42.5254C126.971 42.8965 126.823 43.4043 126.823 44.0488C126.823 44.6934 126.971 45.2031 127.268 45.5781ZM128.533 49.7559C127.744 49.7559 127.104 49.5918 126.612 49.2637C126.119 48.9395 125.84 48.5039 125.774 47.957H127.063C127.117 48.1914 127.274 48.377 127.532 48.5137C127.793 48.6504 128.133 48.7188 128.551 48.7188C129.074 48.7188 129.483 48.5996 129.776 48.3613C130.073 48.127 130.221 47.7988 130.221 47.377V46.1523H130.127C129.936 46.4961 129.67 46.7617 129.33 46.9492C128.991 47.1328 128.6 47.2246 128.158 47.2246C127.35 47.2246 126.707 46.9375 126.231 46.3633C125.758 45.7852 125.522 45.0156 125.522 44.0547C125.522 43.0781 125.76 42.2969 126.237 41.7109C126.713 41.125 127.358 40.832 128.17 40.832C128.608 40.832 129.006 40.9336 129.366 41.1367C129.725 41.3359 129.994 41.6094 130.174 41.957H130.274V40.9375H131.481V47.3711C131.481 48.1016 131.215 48.6816 130.684 49.1113C130.153 49.541 129.436 49.7559 128.533 49.7559Z" fill="white"/>
<rect x="0.5" y="0.5" width="181" height="57" rx="8.5" stroke="#9F9FAB"/>
</g>
<defs>
<filter id="filter0_b_1528_215" x="-4" y="-4" width="190" height="66" filterUnits="userSpaceOnUse" color-interpolation-filters="sRGB">
<feFlood flood-opacity="0" result="BackgroundImageFix"/>
<feGaussianBlur in="BackgroundImageFix" stdDeviation="2"/>
<feComposite in2="SourceAlpha" operator="in" result="effect1_backgroundBlur_1528_215"/>
<feBlend mode="normal" in="SourceGraphic" in2="effect1_backgroundBlur_1528_215" result="shape"/>
</filter>
</defs>
</svg>
