<svg width="22" height="20" viewBox="0 0 22 20" fill="none" xmlns="http://www.w3.org/2000/svg">
<path d="M3.04669 0C1.50681 0 0.5 1.0075 0.5 2.33173C0.5 3.62671 1.47682 4.66294 2.9876 4.66294H3.01683C4.58683 4.66294 5.5639 3.62671 5.5639 2.33173C5.53455 1.0075 4.58683 0 3.04669 0Z" fill="#0E0F2C"/>
<path d="M0.766062 6.50541H5.2678V20H0.766062V6.50541Z" fill="#0E0F2C"/>
<path d="M16.3174 6.18862C13.8889 6.18862 12.2604 8.46236 12.2604 8.46236V6.50534H7.75857V19.9999H12.2602V12.464C12.2602 12.0606 12.2895 11.6578 12.4085 11.3693C12.7339 10.5637 13.4745 9.72912 14.7182 9.72912C16.3471 9.72912 16.9987 10.9666 16.9987 12.7807V19.9999H21.5V12.2624C21.5 8.11742 19.279 6.18862 16.3174 6.18862Z" fill="#0E0F2C"/>
</svg>
