<svg width="131" height="32" viewBox="0 0 131 32" fill="none" xmlns="http://www.w3.org/2000/svg">
<path fill-rule="evenodd" clip-rule="evenodd" d="M120.369 8.90418L123.025 18.5345H117.676L120.369 8.90418ZM51.5424 20.8846C51.5424 16.3625 51.2296 15.1534 44.9312 13.667C41.2571 12.8034 41.1564 12.772 41.1564 10.558C41.1564 8.86754 41.6812 8.45407 44.0246 8.45407C46.1241 8.45407 47.8365 8.66342 50.4927 9.1083L51.0176 4.75892C48.4303 4.20413 45.9809 4 43.9557 4C37.5565 4 35.913 5.83189 35.913 10.422C35.913 15.3942 36.7507 16.4986 42.3811 17.7076C46.193 18.5345 46.299 18.7753 46.299 20.8479C46.299 22.7792 45.7742 23.2974 43.0809 23.2974C40.6686 23.2974 38.5002 22.8473 36.3689 22.193L35.4941 26.197C37.4876 27.0919 40.3187 27.6834 43.012 27.6834C50.0367 27.6834 51.5424 25.438 51.5424 20.8846ZM68.3382 20.1937C68.3382 21.9889 67.1825 23.0933 64.5634 23.0933C61.9391 23.0933 60.7886 21.9889 60.7886 20.1937V11.495C60.7886 9.69973 61.9444 8.59533 64.5634 8.59533C67.1878 8.59533 68.3382 9.69973 68.3382 11.495V20.1937ZM73.5816 11.0448C73.5816 7.55907 71.1322 4 64.5581 4C57.984 4 55.5346 7.55384 55.5346 11.0448V20.6438C55.5346 24.1296 57.984 27.6886 64.5581 27.6886C71.1322 27.6886 73.5816 24.1348 73.5816 20.6438V11.0448ZM90.229 27.3379H96.6971V4.34544H91.6976V20.1884L84.0419 4.34544H77.6057V27.3379H82.6051V12.2172L90.229 27.3379ZM105.752 27.3379V10.5267H100.716V27.3379H105.752ZM105.752 8.42266V4.35068H100.716V8.42266H105.752ZM123.868 4.34544H116.875L109.776 27.3379H115.232L116.488 22.8525H124.287L125.544 27.3379H130.999L123.868 4.34544Z" fill="#2E3192"/>
<path fill-rule="evenodd" clip-rule="evenodd" d="M15.9422 0C24.7113 0 31.8845 7.08145 31.8845 15.7383V16.2617C31.8845 24.9186 24.7113 32 15.9422 32C7.17322 32 0 24.9186 0 16.2617V15.7383C0 7.08669 7.17322 0 15.9422 0ZM18.1584 20.8361C16.4141 20.8361 14.9985 22.2336 14.9985 23.9555C14.9985 25.6775 16.4141 27.0749 18.1584 27.0749C19.9026 27.0749 21.3182 25.6775 21.3182 23.9555C21.3182 22.2336 19.9026 20.8361 18.1584 20.8361ZM10.455 12.8858C8.71071 12.8858 7.29516 14.2833 7.29516 16.0052C7.29516 17.7272 8.71071 19.1246 10.455 19.1246C12.1992 19.1246 13.6148 17.7272 13.6148 16.0052C13.6148 14.2781 12.1992 12.8858 10.455 12.8858ZM18.1584 4.93031C16.4141 4.93031 14.9985 6.32777 14.9985 8.04972C14.9985 9.77167 16.4141 11.1691 18.1584 11.1691C19.9026 11.1691 21.3182 9.77167 21.3182 8.04972C21.3182 6.32777 19.9026 4.93031 18.1584 4.93031ZM18.1584 12.8858C16.4141 12.8858 14.9985 14.2833 14.9985 16.0052C14.9985 17.7272 16.4141 19.1246 18.1584 19.1246C19.9026 19.1246 21.3182 17.7272 21.3182 16.0052C21.3182 14.2781 19.9026 12.8858 18.1584 12.8858Z" fill="#00AEDA"/>
</svg>
