<svg width="64" height="64" viewBox="0 0 64 64" fill="none" xmlns="http://www.w3.org/2000/svg">
<rect width="64" height="64" rx="32" fill="#00AEDA"/>
<path d="M42.1828 27.7533C41.0119 27.7615 39.8835 28.1933 39.0062 28.9689C38.1289 29.7445 37.562 30.8114 37.4103 31.9726C37.2587 33.1337 37.5324 34.3104 38.1811 35.2854C38.8297 36.2603 39.8093 36.9674 40.9389 37.2761V38.7346C40.9389 39.6133 40.7658 40.4835 40.4295 41.2954C40.0932 42.1073 39.6003 42.8449 38.9789 43.4663C38.3575 44.0877 37.6198 44.5806 36.808 44.9169C35.9961 45.2532 35.1259 45.4263 34.2472 45.4263C33.3684 45.4263 32.4983 45.2532 31.6864 44.9169C30.8745 44.5806 30.1368 44.0877 29.5154 43.4663C28.8941 42.8449 28.4012 42.1073 28.0649 41.2954C27.7286 40.4835 27.5555 39.6133 27.5555 38.7346V32.3861C29.7839 32.0659 31.822 30.9526 33.2956 29.2505C34.7691 27.5485 35.5792 25.3719 35.5769 23.1206V17.2869C35.5769 16.9456 35.4414 16.6182 35.2 16.3769C34.9587 16.1356 34.6314 16 34.2901 16H30.1292V18.5737H33.0032V23.1206C32.8677 24.8195 32.0972 26.4049 30.8452 27.5611C29.5931 28.7173 27.9514 29.3594 26.2472 29.3594C24.5429 29.3594 22.9013 28.7173 21.6492 27.5611C20.3971 26.4049 19.6266 24.8195 19.4911 23.1206V18.5737H22.3651V16H18.2043C17.863 16 17.5357 16.1356 17.2943 16.3769C17.053 16.6182 16.9174 16.9456 16.9174 17.2869V23.1206C16.9167 25.3784 17.7327 27.5601 19.215 29.2631C20.6972 30.9661 22.7455 32.0754 24.9818 32.3861V38.7346C24.9818 41.1919 25.9579 43.5486 27.6955 45.2862C29.4331 47.0238 31.7898 48 34.2472 48C36.7045 48 39.0612 47.0238 40.7988 45.2862C42.5364 43.5486 43.5126 41.1919 43.5126 38.7346V37.2761C44.6494 36.9656 45.6342 36.2516 46.2827 35.2676C46.9312 34.2836 47.199 33.097 47.036 31.9299C46.873 30.7627 46.2904 29.695 45.3972 28.9262C44.5039 28.1575 43.3612 27.7406 42.1828 27.7533ZM42.1828 34.874C41.7332 34.874 41.2936 34.7407 40.9198 34.4908C40.5459 34.241 40.2545 33.886 40.0824 33.4706C39.9104 33.0551 39.8653 32.598 39.9531 32.157C40.0408 31.716 40.2573 31.3109 40.5753 30.993C40.8932 30.675 41.2983 30.4585 41.7393 30.3708C42.1803 30.283 42.6374 30.3281 43.0528 30.5001C43.4683 30.6722 43.8233 30.9636 44.0731 31.3375C44.323 31.7113 44.4563 32.1509 44.4563 32.6005C44.4563 33.2035 44.2168 33.7818 43.7904 34.2081C43.3641 34.6345 42.7858 34.874 42.1828 34.874Z" fill="white"/>
</svg>
