<svg width="64" height="65" viewBox="0 0 64 65" fill="none" xmlns="http://www.w3.org/2000/svg">
<circle cx="32" cy="32.5" r="32" fill="#00AEDA"/>
<path d="M29.793 15.5C29.2448 15.5451 28.7422 15.996 28.6508 16.537C28.5366 17.0781 28.8336 17.6643 29.3361 17.9122C29.9301 18.2053 30.3413 18.7689 30.8667 19.4002C20.1986 20.347 11.2895 30.3792 10.627 40.9525H8V43.5H57V40.9525H54.373C53.7105 30.3792 44.8014 20.347 34.1333 19.4002C34.6587 18.7689 35.0699 18.2053 35.6639 17.9122C36.1664 17.6643 36.4634 17.033 36.3263 16.4919C36.1893 15.9283 35.641 15.5 35.0699 15.5H29.793Z" fill="white"/>
</svg>
