<svg width="22" height="18" viewBox="0 0 22 18" fill="none" xmlns="http://www.w3.org/2000/svg">
<path d="M0.381562 8.62972L5.35838 10.4049L7.28517 16.335C7.31298 16.4231 7.36304 16.5033 7.43093 16.5685C7.49881 16.6337 7.58243 16.6818 7.6744 16.7087C7.76636 16.7356 7.86383 16.7405 7.9582 16.7227C8.05256 16.705 8.14092 16.6653 8.21545 16.6072L10.9904 14.4426C11.1319 14.3325 11.3074 14.2702 11.4897 14.2654C11.6719 14.2605 11.8508 14.3134 11.9985 14.4157L17.0027 17.8931C17.0819 17.9481 17.1743 17.9832 17.2714 17.9953C17.3685 18.0074 17.4672 17.996 17.5585 17.9623C17.6498 17.9285 17.7309 17.8734 17.7943 17.802C17.8576 17.7305 17.9014 17.6451 17.9214 17.5534L21.5878 0.675687C21.6092 0.576885 21.6024 0.474388 21.5681 0.378971C21.5338 0.283554 21.4733 0.19874 21.3929 0.133445C21.3125 0.0681502 21.2153 0.0247859 21.1113 0.00791052C21.0074 -0.00896486 20.9006 0.00127195 20.8022 0.0375449L0.375802 7.57947C0.264693 7.62046 0.169239 7.69282 0.102118 7.78695C0.0349962 7.88109 -0.000616962 7.99254 8.08888e-06 8.1065C0.00063314 8.22046 0.0374668 8.33155 0.105617 8.425C0.173768 8.51846 0.27001 8.58986 0.381562 8.62972ZM6.97484 9.46151L16.7046 3.72719C16.7404 3.70688 16.7828 3.69988 16.8237 3.70752C16.8646 3.71516 16.9011 3.7369 16.9263 3.76862C16.9515 3.80034 16.9637 3.83983 16.9605 3.87958C16.9574 3.91933 16.939 3.95657 16.909 3.98424L8.87859 11.1265C8.59681 11.3776 8.41463 11.7144 8.36305 12.0795L8.08944 14.0188C8.08202 14.0737 8.05499 14.1246 8.01292 14.1626C7.97086 14.2007 7.91635 14.2237 7.85861 14.2278C7.80086 14.2318 7.74342 14.2167 7.69601 14.1849C7.64859 14.1531 7.61411 14.1066 7.59839 14.0532L6.54715 10.5159C6.4886 10.3195 6.4987 10.1103 6.57591 9.91993C6.65312 9.72959 6.79321 9.56861 6.97484 9.46151Z" fill="#0E0F2C"/>
</svg>
