<svg width="28" height="20" viewBox="0 0 28 20" fill="none" xmlns="http://www.w3.org/2000/svg">
<path d="M27.3166 3.1294C27.1577 2.52654 26.8481 1.97694 26.4186 1.53523C25.9891 1.09352 25.4547 0.775088 24.8685 0.611584C22.6949 0 13.9997 0 13.9997 0C13.9997 0 5.30501 0 3.13144 0.588354C1.96449 0.917599 1.00261 1.90578 0.68329 3.1294C0.111115 5.36443 0.111115 9.99933 0.111115 9.99933C0.111115 9.99933 0.111115 14.6579 0.68329 16.8697C0.842062 17.4727 1.15158 18.0225 1.58108 18.4644C2.01057 18.9063 2.54507 19.2248 3.13144 19.3884C5.32803 20 14.0002 20 14.0002 20C14.0002 20 22.6949 20 24.8685 19.4116C25.4547 19.2482 25.9892 18.9299 26.4188 18.4883C26.8483 18.0467 27.158 17.4971 27.317 16.8943C27.8888 14.6606 27.8888 10.0243 27.8888 10.0243C27.8888 10.0243 27.9118 5.36443 27.3166 3.1294ZM11.2331 14.2813V5.71824L18.4633 10.0002L11.2331 14.2813Z" fill="#0E0F2C"/>
</svg>
